<?xml version="1.0" encoding="UTF-8" standalone="no"?>
<svg
   width="2560"
   height="476.00012"
   viewBox="0 0 2560 476.00012"
   fill="none"
   version="1.1"
   id="svg39"
   sodipodi:docname="7ebe28255b44026d2c84f429dfe205dc.svg"
   xmlns:inkscape="http://www.inkscape.org/namespaces/inkscape"
   xmlns:sodipodi="http://sodipodi.sourceforge.net/DTD/sodipodi-0.dtd"
   xmlns="http://www.w3.org/2000/svg"
   xmlns:svg="http://www.w3.org/2000/svg">
  <sodipodi:namedview
     id="namedview41"
     pagecolor="#ffffff"
     bordercolor="#666666"
     borderopacity="1.0"
     inkscape:pageshadow="2"
     inkscape:pageopacity="0.0"
     inkscape:pagecheckerboard="0" />
  <g
     clip-path="url(#clip0)"
     id="g32"
     transform="translate(0,-149.99987)">
    <path
       d="m 2560,742.024 c -278.6,-220.6 -407.3,-300 -638,-159.1 -261.9,-168 -360.9,-111.5 -642,63.7 -140.5,-137.3 -194.4,-194.3 -259.5,-108.4 -160.3,-186.7 -248.4,-247.8 -382.7,-85.2 -14.557,17.585 -33.865,30.612 -55.62,37.527 -21.756,6.915 -45.042,7.426 -67.08,1.473 -202.2,-54.9 -396.5,175 -515.1,250 z"
       fill="#5865f2"
       id="path2" />
    <path
       d="m 2366.4,595.424 c -4,-3.5 -10.2,-5.3 -17.6,-5.3 -6.28,0.097 -12.51,1.108 -18.5,3 l -4,1.3 c 0.12,-2.901 -0.22,-5.803 -1,-8.6 -2.2,-8.8 -8,-16 -16.7,-20.9 -13,-7.4 -31.3,-8.6 -48.8,-3.3 -3.42,1.013 -6.77,2.284 -10,3.8 -1.5,-4.866 -3.58,-9.533 -6.2,-13.9 -15.7,-26.4 -48.3,-41.9 -72.7,-34.5 -10.4,3.1 -18.2,10.2 -21.9,19.8 -4.8,12.4 -2.7,27.7 5.9,42.1 12.7,21.5 37.1,36.3 59.5,36.4 0.2,1.3 0.4,2.6 0.7,3.8 0.65,2.392 1.55,4.705 2.7,6.9 h 2.3 c -1.35,-2.311 -2.36,-4.803 -3,-7.4 -0.37,-1.445 -0.64,-2.916 -0.8,-4.4 -0.02,-0.247 -0.14,-0.477 -0.33,-0.643 -0.18,-0.166 -0.42,-0.258 -0.67,-0.257 h -0.7 c -21.8,0 -45.6,-14.5 -58,-35.4 -8.2,-13.9 -10.3,-28.6 -5.8,-40.4 3.5,-9 10.9,-15.6 20.7,-18.6 23.5,-7.1 55.1,8 70.4,33.6 2.7,4.585 4.82,9.49 6.3,14.6 0.12,0.267 0.33,0.48 0.6,0.6 0.26,0.101 0.54,0.101 0.8,0 3.48,-1.692 7.09,-3.096 10.8,-4.2 17,-5.1 34.6,-4 47.2,3.1 8.2,4.7 13.7,11.5 15.8,19.7 0.82,3.095 1.09,6.311 0.8,9.5 0.01,0.341 0.15,0.664 0.4,0.9 0.14,0.115 0.31,0.185 0.48,0.203 0.18,0.018 0.36,-0.018 0.52,-0.103 l 5.3,-1.8 c 14.6,-4.4 27.7,-3.7 34.2,1.9 3.5,2.9 4.9,7 4.2,11.8 -0.7,4.8 -4,11.6 -9.1,17.3 h 2.6 c 4.7,-5.6 7.8,-11.5 8.5,-17 0.7,-5.5 -0.9,-10.3 -4.9,-13.6 z"
       fill="#808aff"
       id="path4" />
    <path
       d="m 41.9008,350.3 c 87.3002,-44 149.0002,-9.9 149.0002,-9.9 43.2,-13.4 81.2,-4 100.9,11.3 12.2,9.6 -15.2,7.9 -76.7,7.9 H 44.2008 c -1.2996,0 -2.5459,-0.516 -3.4648,-1.435 -0.919,-0.919 -1.4352,-2.165 -1.4352,-3.465 0.008,-0.897 0.2525,-1.777 0.7091,-2.549 0.4565,-0.773 1.1087,-1.411 1.8909,-1.851 z"
       fill="#5865f2"
       id="path6" />
    <path
       d="m 815.501,192.3 c 22.1,-11.2 37.7,-2.5 37.7,-2.5 10.9,-3.4 20.6,-1 25.5,2.8 3.1,2.5 -3.8,2 -19.4,2 h -43.3 c -0.318,0 -0.624,-0.126 -0.849,-0.351 -0.225,-0.225 -0.351,-0.531 -0.351,-0.849 -0.002,-0.231 0.063,-0.458 0.187,-0.653 0.125,-0.195 0.302,-0.351 0.513,-0.447 z"
       fill="#5865f2"
       id="path8" />
    <path
       d="m 2422.1,212.5 c -0.14,-8.682 -3.29,-17.046 -8.91,-23.665 -5.62,-6.619 -13.36,-11.082 -21.91,-12.628 -8.54,-1.546 -17.36,-0.079 -24.94,4.151 -7.58,4.229 -13.47,10.96 -16.64,19.042 -2.79,-0.606 -5.64,-0.908 -8.5,-0.9 -5.74,-0.018 -11.41,1.228 -16.61,3.647 -5.2,2.42 -9.81,5.954 -13.49,10.353 z"
       fill="#5865f2"
       id="path10" />
    <path
       d="m 413.001,210.1 c -5.999,0.003 -11.907,1.46 -17.219,4.246 -5.312,2.787 -9.87,6.82 -13.281,11.754 -13.349,-6.081 -28.162,-8.202 -42.681,-6.11 -14.518,2.092 -28.13,8.308 -39.219,17.91 h 148.3 c -2.076,-7.947 -6.723,-14.984 -13.217,-20.012 -6.494,-5.029 -14.47,-7.767 -22.683,-7.788 z"
       fill="#5865f2"
       id="path12" />
    <path
       d="m 2165.6,283.5 c 2.51,0.027 5,-0.502 7.28,-1.549 2.28,-1.048 4.3,-2.588 5.92,-4.51 1.61,-1.921 2.78,-4.177 3.42,-6.605 0.64,-2.428 0.74,-4.967 0.28,-7.436 -4.79,-25.844 -17.87,-49.426 -37.24,-67.186 -19.38,-17.76 -44.01,-28.733 -70.17,-31.262 -26.17,-2.53 -52.44,3.522 -74.86,17.241 -22.42,13.719 -39.77,34.36 -49.43,58.807 -8.94,-1.929 -18.06,-2.902 -27.2,-2.9 -17.57,-0.029 -34.96,3.612 -51.04,10.689 -16.08,7.077 -30.51,17.435 -42.36,30.411 -0.32,0.373 -0.53,0.829 -0.6,1.316 -0.08,0.487 -0.01,0.985 0.19,1.436 0.2,0.45 0.52,0.835 0.93,1.109 0.41,0.274 0.89,0.426 1.38,0.439 z"
       fill="#5865f2"
       id="path14" />
    <path
       d="m 1720.6,625.4 h -2 c 0.8,-22.6 -3.4,-37.3 -12.9,-44.8 -9.5,-7.5 -25.4,-8 -47.7,-1.1 -0.27,0.069 -0.56,0.033 -0.8,-0.1 -0.25,-0.163 -0.43,-0.413 -0.5,-0.7 -0.62,-4.02 -2.27,-7.811 -4.8,-11.002 -2.52,-3.19 -5.83,-5.67 -9.6,-7.198 -9.6,-3.9 -21.5,-1.7 -31.7,5.8 -24.8,18.1 -22.1,50.5 -22.1,50.8 0,0.206 -0.05,0.409 -0.16,0.586 -0.1,0.177 -0.26,0.32 -0.44,0.414 -0.18,0.096 -0.38,0.128 -0.58,0.092 -0.2,-0.037 -0.39,-0.139 -0.52,-0.292 -12.9,-11.5 -21.9,-16 -29.2,-14.7 -7.3,1.3 -13.9,9.1 -21.4,22.2 h -2.3 c 8.1,-14.2 14.7,-22.7 23.3,-24.2 8.6,-1.5 16.7,2.9 29.2,13.7 -0.1,-8 1.3,-34.3 23,-50.2 10.8,-7.9 23.4,-10.2 33.6,-6 3.93,1.533 7.41,4.031 10.12,7.265 2.71,3.233 4.56,7.097 5.38,11.235 22.4,-6.7 38.2,-6.1 48.4,1.9 10.2,8 14.5,23 13.7,46.3 z"
       fill="#808aff"
       id="path16" />
    <path
       d="m 596.5,275.9 c -1.569,-0.982 -2.901,-2.298 -3.904,-3.853 -1.002,-1.556 -1.65,-3.313 -1.896,-5.147 l -1,-6.4 c -0.024,-0.141 -0.098,-0.269 -0.208,-0.361 -0.11,-0.092 -0.249,-0.141 -0.392,-0.139 -0.144,-0.002 -0.283,0.047 -0.393,0.139 -0.11,0.092 -0.184,0.22 -0.207,0.361 l -1,6.4 c -0.266,1.828 -0.922,3.578 -1.923,5.13 -1,1.553 -2.323,2.873 -3.877,3.87 l -0.8,0.5 c -0.096,0.042 -0.177,0.112 -0.231,0.202 -0.054,0.09 -0.078,0.194 -0.069,0.298 -0.009,0.104 0.015,0.209 0.069,0.298 0.054,0.09 0.135,0.161 0.231,0.202 l 0.8,0.5 c 1.549,1.028 2.865,2.368 3.864,3.936 0.999,1.567 1.658,3.326 1.936,5.164 l 1,6.3 c 0.023,0.141 0.097,0.269 0.207,0.361 0.11,0.092 0.249,0.141 0.393,0.139 0.143,0.002 0.282,-0.047 0.392,-0.139 0.11,-0.092 0.184,-0.22 0.208,-0.361 l 1,-6.3 c 0.258,-1.843 0.91,-3.61 1.911,-5.18 1,-1.57 2.327,-2.907 3.889,-3.92 l 0.8,-0.5 c 0.096,-0.041 0.176,-0.112 0.23,-0.202 0.054,-0.089 0.078,-0.194 0.07,-0.298 0.008,-0.104 -0.016,-0.208 -0.07,-0.298 -0.054,-0.09 -0.134,-0.16 -0.23,-0.202 z"
       fill="#91ffad"
       id="path18" />
    <path
       d="m 1692.1,177.1 c -2.65,-1.715 -4.9,-3.976 -6.61,-6.632 -1.71,-2.655 -2.83,-5.645 -3.29,-8.768 l -1.6,-10.8 c -0.06,-0.247 -0.2,-0.468 -0.4,-0.63 -0.2,-0.162 -0.45,-0.257 -0.7,-0.27 -0.26,-0.004 -0.51,0.084 -0.72,0.249 -0.2,0.164 -0.33,0.395 -0.38,0.651 l -1.6,10.8 c -0.48,3.13 -1.62,6.122 -3.34,8.777 -1.73,2.655 -4,4.913 -6.66,6.623 l -1.4,0.9 c -0.15,0.104 -0.27,0.238 -0.35,0.394 -0.09,0.155 -0.14,0.328 -0.15,0.506 0,0.18 0.05,0.355 0.14,0.512 0.08,0.157 0.21,0.29 0.36,0.388 l 1.4,0.9 c 2.67,1.731 4.94,4.007 6.66,6.678 1.72,2.672 2.86,5.679 3.34,8.822 l 1.6,10.8 c 0.05,0.256 0.18,0.487 0.38,0.652 0.21,0.164 0.46,0.252 0.72,0.248 0.25,-0.013 0.5,-0.108 0.7,-0.269 0.2,-0.162 0.34,-0.383 0.4,-0.631 l 1.6,-10.8 c 0.46,-3.137 1.58,-6.141 3.29,-8.813 1.7,-2.672 3.96,-4.951 6.61,-6.687 l 1.5,-0.9 c 0.14,-0.103 0.25,-0.239 0.32,-0.397 0.07,-0.158 0.1,-0.331 0.08,-0.503 0.01,-0.171 -0.02,-0.341 -0.09,-0.497 -0.07,-0.156 -0.18,-0.294 -0.31,-0.403 z"
       fill="#3f99f2"
       id="path20" />
    <path
       d="m 2183.7,410.1 c -2.15,-1.395 -3.97,-3.232 -5.35,-5.387 -1.38,-2.156 -2.28,-4.58 -2.65,-7.113 l -1.4,-8.7 c 0,-0.212 -0.08,-0.416 -0.23,-0.566 -0.15,-0.15 -0.36,-0.234 -0.57,-0.234 -0.22,-0.001 -0.44,0.08 -0.6,0.227 -0.17,0.148 -0.28,0.352 -0.3,0.573 l -1.3,8.7 c -0.39,2.539 -1.31,4.967 -2.7,7.122 -1.4,2.155 -3.24,3.988 -5.4,5.378 l -1.1,0.7 c -0.11,0.083 -0.21,0.188 -0.27,0.308 -0.07,0.121 -0.12,0.254 -0.13,0.392 0,0.142 0.03,0.281 0.11,0.404 0.07,0.123 0.17,0.225 0.29,0.296 l 1.1,0.7 c 2.15,1.399 3.98,3.235 5.38,5.389 1.39,2.153 2.32,4.576 2.72,7.111 l 1.3,8.7 c 0.02,0.221 0.13,0.425 0.3,0.573 0.16,0.148 0.38,0.229 0.6,0.227 0.21,0 0.42,-0.084 0.57,-0.234 0.15,-0.15 0.23,-0.354 0.23,-0.566 l 1.4,-8.7 c 0.38,-2.528 1.29,-4.949 2.67,-7.102 1.38,-2.154 3.19,-3.993 5.33,-5.398 l 1.1,-0.7 c 0.13,-0.061 0.24,-0.161 0.31,-0.287 0.07,-0.125 0.1,-0.269 0.09,-0.413 0,-0.142 -0.04,-0.281 -0.11,-0.404 -0.07,-0.123 -0.17,-0.225 -0.29,-0.296 z"
       fill="#404eed"
       id="path22" />
    <path
       d="m 900.9,413.7 c -0.813,-0.517 -1.503,-1.206 -2.021,-2.018 -0.518,-0.811 -0.853,-1.727 -0.979,-2.682 l -0.5,-3.2 c 0,-0.079 -0.032,-0.156 -0.088,-0.212 -0.056,-0.056 -0.133,-0.088 -0.212,-0.088 -0.08,0 -0.156,0.032 -0.212,0.088 -0.057,0.056 -0.088,0.133 -0.088,0.212 l -0.5,3.2 c -0.127,0.955 -0.461,1.871 -0.98,2.682 -0.518,0.812 -1.208,1.501 -2.02,2.018 l -0.5,0.3 c -0.1,0 -0.1,0.2 -0.1,0.3 -0.005,0.054 0.002,0.109 0.019,0.16 0.017,0.052 0.044,0.1 0.081,0.14 l 0.5,0.2 c 0.791,0.541 1.465,1.236 1.98,2.043 0.516,0.808 0.863,1.712 1.02,2.657 l 0.5,3.3 c 0,0.08 0.031,0.156 0.088,0.212 0.056,0.056 0.132,0.088 0.212,0.088 0.079,0 0.156,-0.032 0.212,-0.088 0.056,-0.056 0.088,-0.132 0.088,-0.212 l 0.5,-3.3 c 0.157,-0.945 0.503,-1.849 1.019,-2.657 0.516,-0.807 1.189,-1.502 1.981,-2.043 l 0.5,-0.2 c 0.036,-0.04 0.063,-0.088 0.081,-0.14 0.017,-0.051 0.023,-0.106 0.019,-0.16 0,-0.1 0,-0.3 -0.1,-0.3 z"
       fill="#ff78b9"
       id="path24" />
    <path
       d="m 943.1,542 c -0.415,-0.247 -0.772,-0.581 -1.048,-0.977 -0.276,-0.397 -0.464,-0.848 -0.552,-1.323 L 941.3,538 H 941 l -0.3,1.7 c -0.071,0.469 -0.241,0.917 -0.5,1.314 -0.259,0.397 -0.6,0.733 -1,0.986 l -0.2,0.2 c -0.027,0 -0.052,0.011 -0.071,0.03 -0.019,0.018 -0.029,0.044 -0.029,0.07 0,0.027 0.01,0.052 0.029,0.071 0.019,0.019 0.044,0.029 0.071,0.029 l 0.2,0.2 c 0.4,0.253 0.741,0.59 1,0.987 0.259,0.397 0.429,0.845 0.5,1.313 l 0.3,1.7 h 0.3 l 0.2,-1.7 c 0.088,-0.475 0.276,-0.926 0.552,-1.322 0.276,-0.397 0.633,-0.73 1.048,-0.978 l 0.2,-0.2 z"
       fill="#ffc619"
       id="path26" />
    <path
       d="m 1365.8,532.6 c -0.9,-0.607 -1.66,-1.39 -2.24,-2.301 -0.59,-0.911 -0.98,-1.931 -1.16,-2.999 l -0.5,-3.6 c 0,-0.2 -0.2,-0.3 -0.4,-0.3 -0.04,0 -0.08,0.008 -0.12,0.023 -0.03,0.015 -0.06,0.037 -0.09,0.065 -0.03,0.028 -0.05,0.061 -0.07,0.097 -0.01,0.037 -0.02,0.076 -0.02,0.115 l -0.6,3.6 c -0.14,1.069 -0.5,2.095 -1.07,3.01 -0.57,0.914 -1.33,1.696 -2.23,2.29 l -0.5,0.3 c -0.1,0 -0.2,0.1 -0.2,0.3 0,0.1 0.1,0.2 0.2,0.3 l 0.5,0.3 c 0.88,0.589 1.63,1.355 2.2,2.251 0.57,0.895 0.94,1.9 1.1,2.949 l 0.6,3.6 c 0,0.08 0.03,0.156 0.09,0.212 0.05,0.057 0.13,0.088 0.21,0.088 0.2,0 0.4,-0.1 0.4,-0.3 l 0.5,-3.6 c 0.19,-1.05 0.59,-2.05 1.17,-2.943 0.59,-0.893 1.34,-1.661 2.23,-2.257 l 0.5,-0.3 c 0.04,-0.04 0.06,-0.088 0.08,-0.14 0.02,-0.051 0.02,-0.106 0.02,-0.16 0,-0.2 0,-0.3 -0.1,-0.3 z"
       fill="#91ffad"
       id="path28" />
    <path
       d="m 330.1,509 c -0.962,-0.65 -1.778,-1.492 -2.397,-2.473 -0.62,-0.981 -1.03,-2.08 -1.203,-3.227 l -0.6,-4 c -0.1,-0.2 -0.2,-0.4 -0.4,-0.4 -0.106,0 -0.208,0.042 -0.283,0.117 -0.075,0.075 -0.117,0.177 -0.117,0.283 l -0.6,4 c -0.192,1.154 -0.619,2.255 -1.256,3.236 -0.637,0.981 -1.469,1.82 -2.444,2.464 l -0.6,0.3 c -0.1,0.1 -0.1,0.2 -0.1,0.4 0,0.1 0,0.3 0.1,0.3 l 0.6,0.4 c 0.984,0.635 1.822,1.472 2.46,2.454 0.637,0.983 1.06,2.089 1.24,3.246 l 0.6,4 c 0,0.2 0.2,0.3 0.4,0.3 0.2,0 0.3,-0.1 0.4,-0.3 l 0.6,-4 c 0.161,-1.151 0.566,-2.254 1.187,-3.237 0.62,-0.983 1.443,-1.822 2.413,-2.463 l 0.6,-0.4 c 0.1,0 0.2,-0.2 0.2,-0.3 0,-0.077 -0.018,-0.154 -0.053,-0.223 -0.035,-0.07 -0.085,-0.13 -0.147,-0.177 z"
       fill="#ff78b9"
       id="path30" />
  </g>
  <defs
     id="defs37">
    <clipPath
       id="clip0">
      <rect
         width="2560"
         height="626"
         fill="#ffffff"
         id="rect34"
         x="0"
         y="0" />
    </clipPath>
  </defs>
</svg>
